<?xml version="1.0" encoding="UTF-8" standalone="no"?>
<!-- Created with Inkscape (http://www.inkscape.org/) -->

<svg
   xmlns:dc="http://purl.org/dc/elements/1.1/"
   xmlns:cc="http://creativecommons.org/ns#"
   xmlns:rdf="http://www.w3.org/1999/02/22-rdf-syntax-ns#"
   xmlns:svg="http://www.w3.org/2000/svg"
   xmlns="http://www.w3.org/2000/svg"
   xmlns:sodipodi="http://sodipodi.sourceforge.net/DTD/sodipodi-0.dtd"
   xmlns:inkscape="http://www.inkscape.org/namespaces/inkscape"
   width="512"
   height="512"
   viewBox="0 0 135.46666 135.46667"
   version="1.1"
   id="svg935"
   inkscape:version="0.92.2 2405546, 2018-03-11"
   sodipodi:docname="logo-dark.svg">
  <title
     id="title1156">LOGO of LUG@USTC</title>
  <defs
     id="defs929" />
  <sodipodi:namedview
     id="base"
     pagecolor="#ffffff"
     bordercolor="#666666"
     borderopacity="1.0"
     inkscape:pageopacity="0.0"
     inkscape:pageshadow="2"
     inkscape:zoom="0.35"
     inkscape:cx="-212.81347"
     inkscape:cy="238.08684"
     inkscape:document-units="mm"
     inkscape:current-layer="layer1"
     showgrid="true"
     inkscape:window-width="1366"
     inkscape:window-height="750"
     inkscape:window-x="0"
     inkscape:window-y="18"
     inkscape:window-maximized="0"
     units="px">
    <inkscape:grid
       type="xygrid"
       id="grid1480" />
  </sodipodi:namedview>
  <metadata
     id="metadata932">
    <rdf:RDF>
      <cc:Work
         rdf:about="">
        <dc:format>image/svg+xml</dc:format>
        <dc:type
           rdf:resource="http://purl.org/dc/dcmitype/StillImage" />
        <dc:title>LOGO of LUG@USTC</dc:title>
        <cc:license
           rdf:resource="http://creativecommons.org/licenses/by-nc-nd/4.0/" />
        <dc:creator>
          <cc:Agent>
            <dc:title>Shengyu Zhang</dc:title>
          </cc:Agent>
        </dc:creator>
      </cc:Work>
      <cc:License
         rdf:about="http://creativecommons.org/licenses/by-nc-nd/4.0/">
        <cc:permits
           rdf:resource="http://creativecommons.org/ns#Reproduction" />
        <cc:permits
           rdf:resource="http://creativecommons.org/ns#Distribution" />
        <cc:requires
           rdf:resource="http://creativecommons.org/ns#Notice" />
        <cc:requires
           rdf:resource="http://creativecommons.org/ns#Attribution" />
        <cc:prohibits
           rdf:resource="http://creativecommons.org/ns#CommercialUse" />
      </cc:License>
    </rdf:RDF>
  </metadata>
  <g
     inkscape:label="Layer 1"
     inkscape:groupmode="layer"
     id="layer1"
     transform="translate(0,-161.53332)">
    <flowRoot
       xml:space="preserve"
       id="flowRoot2172"
       style="fill:black;stroke:none;stroke-opacity:1;stroke-width:1px;stroke-linejoin:miter;stroke-linecap:butt;fill-opacity:1;font-family:sans-serif;font-style:normal;font-weight:normal;font-size:40px;line-height:25px;letter-spacing:0px;word-spacing:0px"><flowRegion
         id="flowRegion2174"><rect
           id="rect2176"
           width="40"
           height="60"
           x="320"
           y="292" /></flowRegion><flowPara
         id="flowPara2178" /></flowRoot>    <flowRoot
       xml:space="preserve"
       id="flowRoot2180"
       style="fill:black;stroke:none;stroke-opacity:1;stroke-width:1px;stroke-linejoin:miter;stroke-linecap:butt;fill-opacity:1;font-family:sans-serif;font-style:normal;font-weight:normal;font-size:40px;line-height:25px;letter-spacing:0px;word-spacing:0px"><flowRegion
         id="flowRegion2182"><rect
           id="rect2184"
           width="360"
           height="360"
           x="100"
           y="192" /></flowRegion><flowPara
         id="flowPara2186" /></flowRoot>    <path
       style="opacity:0.3;fill:#b7bdc3;fill-opacity:1;fill-rule:evenodd;stroke:none;stroke-width:0.26944411px;stroke-linecap:butt;stroke-linejoin:miter;stroke-opacity:1"
       d="m 18.963946,222.79999 -2.694442,1.34723 -1.34722,1.34722 -1.347221,4.04166 8.083323,60.62493 h 1.347221 l 4.041662,-1.34722 5.388882,-1.34723 5.388883,-1.34721 h 6.736103 L 25.700048,222.79999 h -4.041662 z"
       id="path1099"
       inkscape:connector-curvature="0" />
    <path
       style="fill:#b7bdc3;fill-opacity:1;stroke-width:0.21403855"
       d="m 21.555112,291.58674 c 0,-0.0911 -1.877778,-14.61092 -4.172838,-32.26632 -2.29506,-17.65541 -4.173246,-32.36946 -4.17375,-32.69789 -0.0015,-0.95684 0.757949,-2.18345 2.039261,-3.29375 0.905526,-0.78467 1.842566,-1.29415 3.909677,-2.12586 3.329181,-1.33949 36.888787,-13.35317 37.307069,-13.35522 0.417495,-0.002 1.040572,-0.98909 2.431078,-3.85123 1.364193,-2.80797 1.64847,-4.37353 1.204202,-6.63171 -0.87019,-4.42308 -3.793518,-7.35726 -10.39863,-10.43724 -3.131256,-1.46012 -5.624006,-2.28891 -8.882601,-2.9533 -1.997352,-0.40725 -7.968082,-0.65435 -8.989617,-0.37204 -1.531544,0.42326 -1.739282,-0.24926 -0.380967,-1.23312 3.749312,-2.71598 10.057624,-4.75066 13.635536,-4.39798 0.773888,0.0764 2.466561,0.29203 3.761494,0.47946 3.60113,0.52119 7.532138,0.0903 8.731976,-0.95747 0.211468,-0.18454 1.043635,-1.25895 1.84928,-2.38735 1.679299,-2.3521 3.595719,-4.22876 5.9199,-5.79712 2.035506,-1.37353 2.708589,-1.65261 5.190948,-2.15221 2.678785,-0.53911 4.339742,-0.50751 7.526556,0.1431 6.496037,1.32645 11.256617,5.08866 14.340844,11.33332 1.395743,2.82602 2.040183,4.99156 2.35664,7.91942 0.455977,4.21843 1.309537,6.28371 3.632329,8.78885 1.814311,1.95674 2.785031,3.39594 3.604391,5.34388 1.41577,3.36587 6.32412,16.28385 6.30148,16.58444 -0.0498,0.66213 -14.885682,48.273 -15.120282,48.52385 -0.134236,0.14334 -11.020953,5.03653 -24.192894,10.87352 l -23.949,10.61274 -1.049649,-0.225 c -2.28258,-0.48952 -7.398287,-0.20325 -11.623487,0.65077 -3.673941,0.74249 -9.189285,2.79247 -9.925487,3.6892 -0.299572,0.36487 -0.883459,0.49194 -0.883459,0.19238 z m 2.628988,-2.58211 c 0.791682,-0.33403 1.477342,-0.64706 1.523684,-0.69564 0.04634,-0.0485 -0.0078,-0.66625 -0.120233,-1.37259 -1.661519,-10.43404 -6.269306,-41.9053 -6.486955,-44.30598 -0.07471,-0.82402 -0.185886,-1.73904 -0.247063,-2.03336 -0.07122,-0.34264 -0.038,-0.45812 0.09237,-0.32105 0.397872,0.41831 1.965426,9.95629 5.610725,34.13915 1.091329,7.23985 2.0457,13.23417 2.120827,13.32068 0.07513,0.0865 0.90376,-0.0718 1.841406,-0.35188 0.937648,-0.28005 1.969686,-0.56939 2.29342,-0.64297 0.323733,-0.0736 0.588606,-0.2687 0.588606,-0.43363 0,-0.16483 -1.112212,-5.67724 -2.47158,-12.24962 -3.767675,-18.21624 -7.515322,-37.05708 -7.6562,-38.49059 l -0.126199,-1.28422 0.32172,0.96315 c 0.559846,1.67609 3.672609,16.20441 8.552662,39.91822 1.259741,6.12148 2.308816,11.15264 2.331274,11.18035 0.0225,0.0276 0.852932,-0.0925 1.845497,-0.26727 0.992565,-0.17467 2.117698,-0.31772 2.50029,-0.3179 0.382595,-1.5e-4 0.695626,-0.1034 0.695626,-0.2293 0,-0.12588 -2.162155,-8.43327 -4.804794,-18.46081 -6.592043,-25.01364 -7.184378,-27.39684 -6.884045,-27.69717 0.350569,-0.35057 1.388032,3.39897 10.214255,36.91573 l 2.437757,9.25716 2.401215,3e-5 c 1.827713,0 2.37908,-0.0641 2.308537,-0.26755 -0.05096,-0.14713 -3.997049,-12.98145 -8.769055,-28.52065 -4.772007,-15.5392 -8.822687,-28.6466 -9.001512,-29.12758 -0.888475,-2.38965 -2.169753,-3.49754 -4.438372,-3.83773 -2.156954,-0.32345 -4.789228,0.89268 -5.523099,2.5517 -0.594357,1.34363 -0.557612,2.92203 0.207272,8.90273 4.091776,31.99445 7.038045,54.3658 7.159882,54.3658 0.0235,0 0.690419,-0.27326 1.482102,-0.60726 z m 43.571405,-13.16998 c 9.694456,-4.29686 17.662099,-7.84832 17.70591,-7.89212 0.275781,-0.27577 1.59859,-7.94262 2.24384,-13.00487 0.579167,-4.5439 0.807423,-14.44266 0.429711,-18.63612 -1.119378,-12.42759 -4.691792,-22.10391 -11.255048,-30.48573 -1.698269,-2.16884 -2.358435,-2.77202 -3.397752,-3.10451 -1.382697,-0.44232 -2.736221,-0.12285 -8.90531,2.10139 -6.38966,2.30383 -7.476986,2.76175 -7.718073,3.25053 -0.08708,0.17671 -0.75146,1.6963 -1.476348,3.37717 -8.148397,18.89448 -12.453754,33.94102 -13.717487,47.9404 -0.346021,3.83322 -0.164724,12.65446 0.324404,15.78351 0.304542,1.94824 1.498588,6.32338 2.720064,9.96661 l 0.255799,0.76294 2.582021,-1.12336 c 1.42011,-0.61787 10.513835,-4.63899 20.208269,-8.93584 z m 6.03202,-92.06844 c 0.676395,-0.34976 1.277229,-1.3046 1.277229,-2.02973 0,-1.13445 -1.219995,-2.35443 -2.354441,-2.35443 -1.134422,0 -2.354416,1.21998 -2.354416,2.35443 0,0.70355 0.590671,1.67061 1.233418,2.01937 0.75752,0.411 1.417407,0.41411 2.19821,0.0102 z m 23.539939,101.52317 c -0.966591,-1.33082 -1.826621,-2.40149 -1.911158,-2.37921 -0.08468,0.0228 -1.625185,1.01602 -3.42364,2.20837 -3.52428,2.33654 -4.013702,2.60767 -3.831331,2.1226 0.06294,-0.16762 4.426098,-14.27075 9.695771,-31.3403 5.269674,-17.06959 9.965884,-32.27933 10.436024,-33.79938 0.54795,-1.77161 0.91449,-2.65523 1.02101,-2.46143 0.0915,0.16634 1.23943,3.08469 2.55115,6.48536 1.31174,3.4007 2.47637,6.35382 2.58804,6.56252 0.13678,0.25549 0.10436,0.6594 -0.0991,1.23618 -0.16634,0.4712 -1.76355,6.13849 -3.54959,12.59394 -7.52518,27.19905 -11.375875,40.84729 -11.583042,41.05444 -0.07505,0.0751 -0.927448,-0.95224 -1.894035,-2.28309 z m 14.691296,-38.09041 c 1.80427,-6.49297 3.31678,-11.84172 3.36118,-11.88611 0.0442,-0.0445 0.30199,0.52444 0.5725,1.26401 1.38037,3.77435 5.61699,14.63943 6.00457,15.39919 0.24472,0.47967 0.3649,0.94353 0.26707,1.03078 -0.16685,0.14889 -13.24325,5.99753 -13.40907,5.99753 -0.0422,0 1.39948,-5.31241 3.20375,-11.8054 z"
       id="path1097"
       inkscape:connector-curvature="0" />
  </g>
</svg>
