<?xml version="1.0" encoding="UTF-8" standalone="no"?>
<!-- Created with Inkscape (http://www.inkscape.org/) -->

<svg
   xmlns:dc="http://purl.org/dc/elements/1.1/"
   xmlns:cc="http://creativecommons.org/ns#"
   xmlns:rdf="http://www.w3.org/1999/02/22-rdf-syntax-ns#"
   xmlns:svg="http://www.w3.org/2000/svg"
   xmlns="http://www.w3.org/2000/svg"
   xmlns:sodipodi="http://sodipodi.sourceforge.net/DTD/sodipodi-0.dtd"
   xmlns:inkscape="http://www.inkscape.org/namespaces/inkscape"
   width="512"
   height="512"
   viewBox="0 0 135.46666 135.46667"
   version="1.1"
   id="svg935"
   inkscape:version="0.92.2 2405546, 2018-03-11"
   sodipodi:docname="logo-text.svg">
  <title
     id="title1156">LOGO of LUG@USTC</title>
  <defs
     id="defs929" />
  <sodipodi:namedview
     id="base"
     pagecolor="#ffffff"
     bordercolor="#666666"
     borderopacity="1.0"
     inkscape:pageopacity="0.0"
     inkscape:pageshadow="2"
     inkscape:zoom="0.7"
     inkscape:cx="87.867475"
     inkscape:cy="256.19779"
     inkscape:document-units="mm"
     inkscape:current-layer="layer1"
     showgrid="true"
     inkscape:window-width="1916"
     inkscape:window-height="1076"
     inkscape:window-x="0"
     inkscape:window-y="0"
     inkscape:window-maximized="0"
     units="px">
    <inkscape:grid
       type="xygrid"
       id="grid1480" />
  </sodipodi:namedview>
  <metadata
     id="metadata932">
    <rdf:RDF>
      <cc:Work
         rdf:about="">
        <dc:format>image/svg+xml</dc:format>
        <dc:type
           rdf:resource="http://purl.org/dc/dcmitype/StillImage" />
        <dc:title>LOGO of LUG@USTC</dc:title>
        <cc:license
           rdf:resource="http://creativecommons.org/licenses/by-nc-nd/4.0/" />
        <dc:creator>
          <cc:Agent>
            <dc:title>Shengyu Zhang</dc:title>
          </cc:Agent>
        </dc:creator>
      </cc:Work>
      <cc:License
         rdf:about="http://creativecommons.org/licenses/by-nc-nd/4.0/">
        <cc:permits
           rdf:resource="http://creativecommons.org/ns#Reproduction" />
        <cc:permits
           rdf:resource="http://creativecommons.org/ns#Distribution" />
        <cc:requires
           rdf:resource="http://creativecommons.org/ns#Notice" />
        <cc:requires
           rdf:resource="http://creativecommons.org/ns#Attribution" />
        <cc:prohibits
           rdf:resource="http://creativecommons.org/ns#CommercialUse" />
      </cc:License>
    </rdf:RDF>
  </metadata>
  <g
     inkscape:groupmode="layer"
     id="layer2"
     inkscape:label="text"
     style="display:none">
    <text
       transform="translate(0,-161.53332)"
       xml:space="preserve"
       style="font-style:normal;font-weight:normal;font-size:9.5112896px;line-height:5.94455576px;font-family:sans-serif;letter-spacing:0px;word-spacing:0px;display:inline;fill:#102638;fill-opacity:1;stroke:none;stroke-width:0.23778223px;stroke-linecap:butt;stroke-linejoin:miter;stroke-opacity:1"
       x="21.153772"
       y="289.46799"
       id="text183"><tspan
         sodipodi:role="line"
         id="tspan181"
         x="21.153772"
         y="289.46799"
         style="font-style:normal;font-variant:normal;font-weight:normal;font-stretch:normal;font-size:17.43736458px;font-family:FreeSerif;-inkscape-font-specification:FreeSerif;fill:#102638;fill-opacity:1;stroke-width:0.23778223px"> LUG@USTC</tspan></text>
  </g>
  <g
     inkscape:label="logo"
     inkscape:groupmode="layer"
     id="layer1"
     transform="translate(0,-161.53332)"
     style="display:inline">
    <flowRoot
       xml:space="preserve"
       id="flowRoot2172"
       style="font-style:normal;font-weight:normal;font-size:40px;line-height:25px;font-family:sans-serif;letter-spacing:0px;word-spacing:0px;fill:#000000;fill-opacity:1;stroke:none;stroke-width:1px;stroke-linecap:butt;stroke-linejoin:miter;stroke-opacity:1"><flowRegion
         id="flowRegion2174"><rect
           id="rect2176"
           width="40"
           height="60"
           x="320"
           y="292" /></flowRegion><flowPara
         id="flowPara2178" /></flowRoot>    <flowRoot
       xml:space="preserve"
       id="flowRoot2180"
       style="font-style:normal;font-weight:normal;font-size:40px;line-height:25px;font-family:sans-serif;letter-spacing:0px;word-spacing:0px;fill:#000000;fill-opacity:1;stroke:none;stroke-width:1px;stroke-linecap:butt;stroke-linejoin:miter;stroke-opacity:1"><flowRegion
         id="flowRegion2182"><rect
           id="rect2184"
           width="360"
           height="360"
           x="100"
           y="192" /></flowRegion><flowPara
         id="flowPara2186" /></flowRoot>    <g
       id="g1151"
       transform="matrix(0.86509461,0,0,0.86509461,9.1375909,21.821735)">
      <path
         inkscape:connector-curvature="0"
         id="path1097"
         d="m 22.388172,290.46248 c 0,-0.0895 -1.843903,-14.34734 -4.09756,-31.68423 -2.253657,-17.33691 -4.09796,-31.78552 -4.098455,-32.10802 -0.0015,-0.93958 0.744275,-2.14406 2.002472,-3.23433 0.889191,-0.77052 1.809326,-1.27081 3.839146,-2.08751 3.269123,-1.31533 36.223311,-13.11228 36.634047,-13.11429 0.409963,-0.002 1.0218,-0.97125 2.387221,-3.78176 1.339583,-2.75731 1.618732,-4.29463 1.182478,-6.51207 -0.854491,-4.34329 -3.725082,-7.22453 -10.211038,-10.24895 -3.074768,-1.43378 -5.522548,-2.24762 -8.722358,-2.90002 -1.961319,-0.39991 -7.824337,-0.64255 -8.827443,-0.36533 -1.503915,0.41562 -1.707906,-0.24477 -0.374095,-1.21088 3.681674,-2.66698 9.876184,-4.66495 13.38955,-4.31864 0.759927,0.075 2.422064,0.28677 3.693636,0.47081 3.536166,0.51179 7.396258,0.0887 8.574451,-0.94019 0.207653,-0.18121 1.024808,-1.23624 1.815919,-2.34429 1.649004,-2.30966 3.530852,-4.15247 5.813104,-5.69253 1.998786,-1.34876 2.659726,-1.6228 5.097303,-2.11339 2.63046,-0.52938 4.261453,-0.49835 7.390777,0.14052 6.378848,1.30252 11.053546,4.99686 14.082134,11.12887 1.370563,2.77503 2.003378,4.90151 2.314126,7.77655 0.447751,4.14233 1.285913,6.17035 3.566801,8.6303 1.78158,1.92144 2.734792,3.33467 3.539372,5.24747 1.39023,3.30515 6.21003,15.99009 6.1878,16.28526 -0.0489,0.65018 -14.617147,47.40215 -14.847514,47.64847 -0.131815,0.14076 -10.822135,4.94568 -23.756453,10.67737 l -23.516958,10.42128 -1.030713,-0.22094 c -2.241402,-0.48069 -7.264822,-0.19958 -11.413799,0.63903 -3.607662,0.7291 -9.023509,2.74209 -9.74643,3.62265 -0.294168,0.35828 -0.867521,0.48306 -0.867521,0.18891 z m 2.58156,-2.53553 c 0.7774,-0.328 1.450691,-0.63539 1.496197,-0.68309 0.0455,-0.0476 -0.0077,-0.65423 -0.118064,-1.34783 -1.631545,-10.24581 -6.156207,-41.14932 -6.36993,-43.5067 -0.07336,-0.80915 -0.182532,-1.70766 -0.242606,-1.99667 -0.06994,-0.33646 -0.03731,-0.44986 0.0907,-0.31526 0.390694,0.41076 1.92997,9.77668 5.509507,33.52327 1.071641,7.10925 2.008796,12.99543 2.082567,13.08038 0.07378,0.0849 0.887456,-0.0705 1.808187,-0.34553 0.920733,-0.275 1.934153,-0.55912 2.252047,-0.63137 0.317892,-0.0723 0.577987,-0.26386 0.577987,-0.42581 0,-0.16186 -1.092147,-5.57482 -2.426992,-12.02864 -3.699706,-17.88761 -7.379745,-36.38856 -7.518082,-37.79621 l -0.123922,-1.26106 0.315916,0.94578 c 0.549746,1.64585 3.606355,15.91208 8.398371,39.19809 1.237015,6.01105 2.267165,10.95145 2.289218,10.97866 0.02209,0.0271 0.837545,-0.0908 1.812204,-0.26245 0.974659,-0.17152 2.079494,-0.31199 2.455184,-0.31217 0.375693,-1.4e-4 0.683077,-0.10153 0.683077,-0.22516 0,-0.12361 -2.123149,-8.28113 -4.718115,-18.12778 -6.473122,-24.56239 -7.054771,-26.9026 -6.759856,-27.19751 0.344245,-0.34424 1.362992,3.33765 10.029989,36.24977 l 2.39378,9.09016 2.357897,3e-5 c 1.79474,0 2.336161,-0.0629 2.26689,-0.26272 -0.05004,-0.14448 -3.924942,-12.74727 -8.61086,-28.00614 -4.68592,-15.25887 -8.663525,-28.12981 -8.839124,-28.60212 -0.872447,-2.34654 -2.130611,-3.43444 -4.358304,-3.76849 -2.118042,-0.31762 -4.70283,0.87657 -5.423462,2.50566 -0.583634,1.3194 -0.547552,2.86932 0.203533,8.74213 4.01796,31.41727 6.911078,53.38504 7.030717,53.38504 0.02308,0 0.677964,-0.26833 1.455365,-0.59631 z m 42.785374,-12.93239 c 9.519567,-4.21935 17.343473,-7.70674 17.386494,-7.74975 0.270806,-0.27079 1.569751,-7.79933 2.203361,-12.77026 0.568719,-4.46193 0.792857,-14.18211 0.421959,-18.29992 -1.099184,-12.2034 -4.607152,-21.70516 -11.052006,-29.93577 -1.667632,-2.12971 -2.315889,-2.72201 -3.336456,-3.0485 -1.357753,-0.43434 -2.68686,-0.12064 -8.744658,2.06348 -6.27439,2.26227 -7.342101,2.71193 -7.578838,3.19189 -0.08551,0.17352 -0.737904,1.6657 -1.449715,3.31624 -8.001399,18.55363 -12.229087,33.32873 -13.470022,47.07556 -0.339779,3.76406 -0.161753,12.42617 0.318551,15.49877 0.299048,1.91309 1.471554,6.20931 2.670994,9.78681 l 0.251185,0.74918 2.535441,-1.1031 c 1.394491,-0.60672 10.324164,-4.5553 19.84371,-8.77463 z m 5.923202,-90.40752 c 0.664193,-0.34345 1.254188,-1.28107 1.254188,-1.99311 0,-1.11399 -1.197987,-2.31196 -2.311967,-2.31196 -1.113957,0 -2.311942,1.19797 -2.311942,2.31196 0,0.69085 0.580015,1.64047 1.211167,1.98294 0.743854,0.40358 1.391837,0.40664 2.158554,0.01 z m 23.115277,99.69168 c -0.949154,-1.30681 -1.793669,-2.35816 -1.876681,-2.33629 -0.08315,0.0224 -1.595867,0.9977 -3.361877,2.16854 -3.460702,2.29438 -3.941295,2.56062 -3.762214,2.0843 0.06181,-0.16459 4.346251,-14.0133 9.520859,-30.77492 5.174608,-16.76165 9.786098,-31.697 10.247758,-33.18963 0.53806,-1.73965 0.89799,-2.60733 1.00259,-2.41703 0.0898,0.16334 1.21707,3.02904 2.50513,6.36837 1.28807,3.33935 2.43169,6.23919 2.54135,6.44413 0.13431,0.25088 0.10248,0.6475 -0.0973,1.21388 -0.16334,0.4627 -1.73174,6.02775 -3.48556,12.36674 -7.38942,26.70838 -11.170652,40.1104 -11.374082,40.31382 -0.0737,0.0737 -0.910717,-0.93507 -1.859866,-2.24191 z m 14.426265,-37.40325 c 1.77172,-6.37584 3.25694,-11.6281 3.30054,-11.67169 0.0434,-0.0437 0.29654,0.51498 0.56217,1.24121 1.35547,3.70626 5.51566,14.37533 5.89625,15.12139 0.24031,0.47101 0.35832,0.92651 0.26225,1.01218 -0.16384,0.14621 -13.00434,5.88934 -13.16717,5.88934 -0.0414,0 1.37424,-5.21658 3.14596,-11.59243 z"
         style="fill:#102638;fill-opacity:1;stroke-width:0.21017727" />
      <path
         inkscape:connector-curvature="0"
         id="path1099"
         d="m 19.84375,222.91665 -2.645834,1.32292 -1.322916,1.32292 -1.322917,3.96875 7.9375,59.53125 H 23.8125 l 3.96875,-1.32292 5.291666,-1.32292 5.291667,-1.32291 h 6.614583 L 26.458333,222.91665 h -3.96875 z"
         style="opacity:0.3;fill:#102638;fill-opacity:1;fill-rule:evenodd;stroke:none;stroke-width:0.26458332px;stroke-linecap:butt;stroke-linejoin:miter;stroke-opacity:1" />
    </g>
    <g
       aria-label=" LUG@USTC"
       style="font-style:normal;font-weight:normal;font-size:9.5112896px;line-height:5.94455576px;font-family:sans-serif;letter-spacing:0px;word-spacing:0px;display:inline;fill:#102638;fill-opacity:1;stroke:none;stroke-width:0.23778223px;stroke-linecap:butt;stroke-linejoin:miter;stroke-opacity:1"
       id="text183-3">
      <path
         d="m 31.738253,288.78793 h -1.168304 c -1.272927,0 -1.499613,-0.10462 -1.499613,-0.71493 v -8.24788 c 0,-1.23805 0.244123,-1.48217 1.621675,-1.56936 v -0.33131 h -4.917337 v 0.33131 c 1.290365,0.10463 1.517051,0.34875 1.517051,1.56936 v 7.74219 c 0,1.22062 -0.244123,1.48218 -1.517051,1.56937 v 0.33131 h 9.381302 l 0.836994,-3.0341 h -0.435935 c -0.348747,0.80211 -0.767244,2.35404 -3.818782,2.35404 z"
         style="font-style:normal;font-variant:normal;font-weight:normal;font-stretch:normal;font-size:17.43736458px;font-family:FreeSerif;-inkscape-font-specification:FreeSerif;fill:#102638;fill-opacity:1;stroke-width:0.23778223px"
         id="path1223"
         inkscape:connector-curvature="0" />
      <path
         d="m 39.271739,285.40508 v -5.57996 c 0,-1.25549 0.191811,-1.4473 1.5868,-1.56936 v -0.33131 h -4.934774 v 0.33131 c 1.377552,0.10463 1.569363,0.29644 1.569363,1.56936 v 5.44046 c 0,3.01667 1.412427,4.44653 4.376779,4.44653 3.731596,0 4.463965,-2.17967 4.463965,-4.67321 v -4.55116 c 0,-1.77861 0.209248,-2.0576 1.639112,-2.23198 v -0.33131 h -4.045468 v 0.33131 c 1.360114,0.10463 1.639112,0.48825 1.639112,2.23198 v 4.70809 c 0,1.18574 -0.122062,1.84836 -0.40106,2.37148 -0.470808,0.837 -1.5868,1.37756 -2.894602,1.37756 -2.406356,0 -2.999227,-1.41243 -2.999227,-3.53979 z"
         style="font-style:normal;font-variant:normal;font-weight:normal;font-stretch:normal;font-size:17.43736458px;font-family:FreeSerif;-inkscape-font-specification:FreeSerif;fill:#102638;fill-opacity:1;stroke-width:0.23778223px"
         id="path1225"
         inkscape:connector-curvature="0" />
      <path
         d="m 54.606267,278.37782 c 2.266857,0 3.156163,1.55193 3.749033,2.98179 h 0.40106 l -0.139499,-3.67928 h -0.383622 c -0.104625,0.33131 -0.418497,0.57543 -0.784682,0.57543 -0.610308,0 -1.394989,-0.57543 -3.138725,-0.57543 -3.487473,0 -5.981016,2.56329 -5.981016,6.12051 0,4.72553 3.83622,5.91127 6.207701,5.91127 1.499614,0 3.679284,-0.61031 4.376779,-1.22062 v -3.53978 c 0,-1.0288 0.209248,-1.25549 1.220615,-1.34268 v -0.31387 h -4.446528 v 0.31387 c 1.272928,0.0872 1.534488,0.20925 1.534488,1.55193 v 2.82485 c 0,0.558 -1.063679,1.02881 -2.319169,1.02881 -2.84229,0 -4.586027,-1.98786 -4.586027,-5.23121 0,-2.1448 0.854431,-5.40559 4.289592,-5.40559 z"
         style="font-style:normal;font-variant:normal;font-weight:normal;font-stretch:normal;font-size:17.43736458px;font-family:FreeSerif;-inkscape-font-specification:FreeSerif;fill:#102638;fill-opacity:1;stroke-width:0.23778223px"
         id="path1227"
         inkscape:connector-curvature="0" />
      <path
         d="m 68.201416,278.22089 c 2.737666,0 5.004523,2.14479 5.004523,4.74296 0,1.74374 -1.098554,3.43516 -2.24942,3.43516 -0.453371,0 -0.680057,-0.26156 -0.680057,-0.80212 0,-0.12206 0.01744,-0.20925 0.03487,-0.31387 l 1.133429,-4.42909 h -1.203179 l -0.174373,0.66262 c -0.383622,-0.71493 -0.645183,-0.90674 -1.255491,-0.90674 -2.057609,0 -3.417723,2.4761 -3.417723,4.39421 0,1.09856 0.680057,1.95299 1.534488,1.95299 0.767244,0 1.5868,-0.47081 2.179671,-1.25549 0.104624,0.76724 0.749806,1.27292 1.5868,1.27292 1.726299,0 3.208475,-1.93554 3.208475,-4.18496 0,-2.87717 -2.493543,-5.10915 -5.719456,-5.10915 -3.539785,0 -6.364638,2.70279 -6.364638,6.10308 0,3.34797 2.789979,5.9287 6.399513,5.9287 1.220616,0 2.092484,-0.22669 3.783908,-0.99393 l -0.209248,-0.52312 c -1.360115,0.61031 -2.24942,0.83699 -3.417724,0.83699 -2.964352,0 -5.09171,-2.16223 -5.09171,-5.19633 0,-3.0341 1.91811,-5.61483 4.917337,-5.61483 z m 1.569363,4.16753 c 0,1.41242 -0.889306,3.81878 -2.092484,3.81878 -0.645183,0 -1.046242,-0.57543 -1.046242,-1.48218 0,-2.07504 1.569363,-3.34797 2.371482,-3.34797 0.331309,0 0.767244,0.20925 0.767244,1.01137 z"
         style="font-style:normal;font-variant:normal;font-weight:normal;font-stretch:normal;font-size:17.43736458px;font-family:FreeSerif;-inkscape-font-specification:FreeSerif;fill:#102638;fill-opacity:1;stroke-width:0.23778223px"
         id="path1229"
         inkscape:connector-curvature="0" />
      <path
         d="m 79.016668,285.40508 v -5.57996 c 0,-1.25549 0.191811,-1.4473 1.5868,-1.56936 v -0.33131 h -4.934774 v 0.33131 c 1.377551,0.10463 1.569362,0.29644 1.569362,1.56936 v 5.44046 c 0,3.01667 1.412427,4.44653 4.376779,4.44653 3.731596,0 4.463965,-2.17967 4.463965,-4.67321 v -4.55116 c 0,-1.77861 0.209249,-2.0576 1.639112,-2.23198 v -0.33131 h -4.045468 v 0.33131 c 1.360114,0.10463 1.639112,0.48825 1.639112,2.23198 v 4.70809 c 0,1.18574 -0.122061,1.84836 -0.401059,2.37148 -0.470809,0.837 -1.5868,1.37756 -2.894603,1.37756 -2.406356,0 -2.999226,-1.41243 -2.999226,-3.53979 z"
         style="font-style:normal;font-variant:normal;font-weight:normal;font-stretch:normal;font-size:17.43736458px;font-family:FreeSerif;-inkscape-font-specification:FreeSerif;fill:#102638;fill-opacity:1;stroke-width:0.23778223px"
         id="path1231"
         inkscape:connector-curvature="0" />
      <path
         d="m 94.225046,287.11394 c 0,1.16831 -0.871868,1.97043 -2.144796,1.97043 -1.551925,0 -2.650479,-0.95906 -3.522347,-3.08642 h -0.40106 l 0.523121,3.69672 h 0.383622 c 0.01744,-0.33131 0.226686,-0.57543 0.488246,-0.57543 0.645183,0 1.360115,0.59287 2.877166,0.59287 2.005296,0 3.557222,-1.37755 3.557222,-3.1736 0,-1.42986 -0.959055,-2.56329 -3.260787,-3.80135 -1.830924,-1.01136 -2.563293,-1.77861 -2.563293,-2.72022 0,-0.95906 0.732369,-1.62168 1.813486,-1.62168 1.272928,0 2.598167,0.83699 3.191038,2.99923 h 0.435934 l -0.383622,-3.71416 h -0.366185 c -0.06975,0.40106 -0.26156,0.59287 -0.557995,0.59287 -0.540559,0 -1.32524,-0.59287 -2.615605,-0.59287 -1.551926,0 -3.016664,1.13343 -3.016664,2.98179 0,3.57466 5.562519,3.47003 5.562519,6.45182 z"
         style="font-style:normal;font-variant:normal;font-weight:normal;font-stretch:normal;font-size:17.43736458px;font-family:FreeSerif;-inkscape-font-specification:FreeSerif;fill:#102638;fill-opacity:1;stroke-width:0.23778223px"
         id="path1233"
         inkscape:connector-curvature="0" />
      <path
         d="m 101.25748,278.65682 v 8.71868 c 0,1.48218 -0.19181,1.67399 -1.639108,1.76118 v 0.33131 h 5.091708 v -0.33131 c -1.42986,-0.0697 -1.67399,-0.29644 -1.67399,-1.56937 v -8.91049 h 0.94162 c 1.98786,0 2.37148,0.31387 2.77254,2.23198 h 0.4185 l -0.10462,-2.96435 h -9.834677 l -0.104625,2.96435 h 0.418497 c 0.418497,-1.90067 0.819556,-2.23198 2.772545,-2.23198 z"
         style="font-style:normal;font-variant:normal;font-weight:normal;font-stretch:normal;font-size:17.43736458px;font-family:FreeSerif;-inkscape-font-specification:FreeSerif;fill:#102638;fill-opacity:1;stroke-width:0.23778223px"
         id="path1235"
         inkscape:connector-curvature="0" />
      <path
         d="m 107.86106,283.80084 c 0,3.57466 2.37149,5.91127 5.78921,5.91127 1.97042,0 3.69672,-0.80212 4.7604,-2.21455 l -0.31387,-0.31387 c -1.29037,1.23806 -2.44123,1.76118 -3.88853,1.76118 -1.95299,0 -4.32447,-1.116 -4.32447,-5.37071 0,-3.15617 1.62167,-5.19634 4.15009,-5.19634 2.24942,0 3.26079,1.5868 3.74904,3.24335 h 0.40105 l -0.15693,-3.94084 h -0.36619 c -0.10462,0.36618 -0.38362,0.57543 -0.73237,0.57543 -0.62774,0 -1.32524,-0.57543 -3.22591,-0.57543 -3.26079,0 -5.84152,2.44123 -5.84152,6.12051 z"
         style="font-style:normal;font-variant:normal;font-weight:normal;font-stretch:normal;font-size:17.43736458px;font-family:FreeSerif;-inkscape-font-specification:FreeSerif;fill:#102638;fill-opacity:1;stroke-width:0.23778223px"
         id="path1237"
         inkscape:connector-curvature="0" />
    </g>
  </g>
</svg>
