<?xml version="1.0" encoding="UTF-8" standalone="no"?>
<!-- Created with Inkscape (http://www.inkscape.org/) -->

<svg
   xmlns:dc="http://purl.org/dc/elements/1.1/"
   xmlns:cc="http://creativecommons.org/ns#"
   xmlns:rdf="http://www.w3.org/1999/02/22-rdf-syntax-ns#"
   xmlns:svg="http://www.w3.org/2000/svg"
   xmlns="http://www.w3.org/2000/svg"
   xmlns:sodipodi="http://sodipodi.sourceforge.net/DTD/sodipodi-0.dtd"
   xmlns:inkscape="http://www.inkscape.org/namespaces/inkscape"
   width="512"
   height="512"
   viewBox="0 0 135.46666 135.46667"
   version="1.1"
   id="svg935"
   inkscape:version="0.92.2 2405546, 2018-03-11"
   sodipodi:docname="logo-negative.svg">
  <title
     id="title1156">LOGO of LUG@USTC</title>
  <defs
     id="defs929" />
  <sodipodi:namedview
     id="base"
     pagecolor="#ffffff"
     bordercolor="#666666"
     borderopacity="1.0"
     inkscape:pageopacity="0.0"
     inkscape:pageshadow="2"
     inkscape:zoom="0.49497475"
     inkscape:cx="147.60255"
     inkscape:cy="252.27347"
     inkscape:document-units="mm"
     inkscape:current-layer="layer1"
     showgrid="true"
     inkscape:window-width="1366"
     inkscape:window-height="750"
     inkscape:window-x="0"
     inkscape:window-y="18"
     inkscape:window-maximized="0"
     units="px">
    <inkscape:grid
       type="xygrid"
       id="grid1480" />
  </sodipodi:namedview>
  <metadata
     id="metadata932">
    <rdf:RDF>
      <cc:Work
         rdf:about="">
        <dc:format>image/svg+xml</dc:format>
        <dc:type
           rdf:resource="http://purl.org/dc/dcmitype/StillImage" />
        <dc:title>LOGO of LUG@USTC</dc:title>
        <cc:license
           rdf:resource="http://creativecommons.org/licenses/by-nc-nd/4.0/" />
        <dc:creator>
          <cc:Agent>
            <dc:title>Shengyu Zhang</dc:title>
          </cc:Agent>
        </dc:creator>
      </cc:Work>
      <cc:License
         rdf:about="http://creativecommons.org/licenses/by-nc-nd/4.0/">
        <cc:permits
           rdf:resource="http://creativecommons.org/ns#Reproduction" />
        <cc:permits
           rdf:resource="http://creativecommons.org/ns#Distribution" />
        <cc:requires
           rdf:resource="http://creativecommons.org/ns#Notice" />
        <cc:requires
           rdf:resource="http://creativecommons.org/ns#Attribution" />
        <cc:prohibits
           rdf:resource="http://creativecommons.org/ns#CommercialUse" />
      </cc:License>
    </rdf:RDF>
  </metadata>
  <g
     inkscape:label="Layer 1"
     inkscape:groupmode="layer"
     id="layer1"
     transform="translate(0,-161.53332)">
    <path
       id="rect1777"
       transform="matrix(0.26458333,0,0,0.26458333,0,161.53332)"
       style="opacity:1;fill:#102638;fill-opacity:1;fill-rule:nonzero;stroke:none;stroke-width:7.93700743;stroke-linecap:square;stroke-linejoin:miter;stroke-miterlimit:4;stroke-dasharray:none;stroke-dashoffset:0;stroke-opacity:1;paint-order:markers stroke fill"
       d="m 436.08203,278.85156 c 0.16706,-0.16819 1.14166,1.98212 2.16406,4.77735 5.21715,14.26526 21.22849,55.32963 22.69336,58.20117 0.92493,1.81292 1.37952,3.56672 1.00977,3.89648 -0.63062,0.56274 -50.05297,22.66797 -50.67969,22.66797 -0.15949,0 5.29009,-20.0787 12.10938,-44.61914 6.81928,-24.54036 12.53531,-44.75605 12.70312,-44.92383 z m -23.01367,-59.32617 c 0.0328,0.0141 0.0627,0.0441 0.0879,0.0898 0.34583,0.62869 4.6849,11.6588 9.64258,24.51172 4.95776,12.85304 9.35919,24.0159 9.78125,24.80469 0.51696,0.96563 0.39398,2.49192 -0.375,4.67188 -0.62869,1.78091 -6.66563,23.1991 -13.41602,47.59765 -28.44162,102.79956 -42.99435,154.38504 -43.77734,155.16797 -0.28365,0.28384 -3.50692,-3.59892 -7.16016,-8.62891 -3.65325,-5.02987 -6.90314,-9.07639 -7.22265,-8.99218 -0.32005,0.0862 -6.14215,3.83918 -12.93946,8.3457 -13.32011,8.83102 -15.16974,9.85482 -14.48047,8.02148 0.23789,-0.63352 16.72766,-53.93633 36.64454,-118.45117 19.91687,-64.51498 37.66645,-121.99907 39.44336,-127.74414 1.94155,-6.27736 3.27997,-9.60664 3.77148,-9.39453 z M 273.54297,154.98633 c -4.73643,0.0284 -11.98548,2.28491 -29.47266,8.58984 -24.14989,8.70739 -28.26068,10.4378 -29.17187,12.28516 -0.32912,0.66788 -2.83839,6.41078 -5.57813,12.76367 -30.79709,71.41221 -47.06939,128.28036 -51.8457,181.19141 -1.3078,14.48776 -0.62406,47.82796 1.22461,59.65429 1.15102,7.36343 5.66465,23.90024 10.28125,37.66992 l 0.9668,2.88282 9.75976,-4.2461 c 5.36735,-2.33525 39.73657,-17.53142 76.37695,-33.77148 36.64047,-16.2401 66.75434,-29.66454 66.91993,-29.83008 1.04232,-1.04228 6.04172,-30.01943 8.48047,-49.15234 2.18897,-17.1738 3.05257,-54.58625 1.625,-70.43555 -4.23073,-46.97042 -17.73306,-83.54138 -42.53907,-115.2207 -6.41865,-8.19719 -8.91367,-10.47772 -12.84179,-11.73438 -1.30649,-0.41794 -2.60674,-0.65594 -4.18555,-0.64648 z m 1.26758,-87.527346 c -4.28758,0 -8.89844,4.612706 -8.89844,8.900391 0,2.659087 2.23283,6.312711 4.66211,7.630859 2.86307,1.553386 5.35753,1.565652 8.30859,0.03906 2.55646,-1.321928 4.82617,-4.929273 4.82617,-7.669922 0,-4.287685 -4.61076,-8.900391 -8.89843,-8.900391 z m 3.67187,-47.626953 c 4.83675,-0.06483 9.78543,0.577751 16.56055,1.960938 24.55195,5.013354 42.5462,19.234073 54.20312,42.835937 5.27525,10.681021 7.7102,18.865713 8.90625,29.931641 1.72338,15.943673 4.94946,23.748553 13.72852,33.216793 6.85724,7.39556 10.52625,12.83498 13.62305,20.19727 5.35094,12.7214 23.90197,61.54555 23.8164,62.68164 -0.18822,2.50254 -56.2598,182.44839 -57.14648,183.39648 -0.50735,0.54176 -41.65574,19.0366 -91.43945,41.09766 l -90.51563,40.11133 -3.9668,-0.85156 c -8.62707,-1.85016 -27.96238,-0.76686 -43.93164,2.46093 -13.88576,2.80627 -34.731174,10.55415 -37.513669,13.94336 -1.132241,1.37904 -3.337891,1.85876 -3.337891,0.72657 0,-0.34432 -7.097242,-55.22211 -15.771484,-121.95118 -8.674243,-66.7291 -15.773486,-122.34267 -15.775391,-123.58398 -0.0057,-3.6164 2.864277,-8.25086 7.707031,-12.44727 3.422461,-2.96568 6.964641,-4.89168 14.777344,-8.03515 12.582731,-5.06264 139.423,-50.46882 141.00391,-50.47656 1.57793,-0.008 3.93204,-3.73911 9.1875,-14.55665 5.156,-10.6128 6.2299,-16.5296 4.55078,-25.06445 -3.28891,-16.71715 -14.33658,-27.8064 -39.30078,-39.447264 -11.83467,-5.518564 -21.25632,-8.651029 -33.57227,-11.16211 -7.54905,-1.539212 -30.11564,-2.473248 -33.97656,-1.40625 -5.78851,1.599723 -6.57324,-0.94163 -1.43945,-4.660156 14.17062,-10.265121 38.01233,-17.956011 51.53515,-16.623047 2.92493,0.288756 9.32256,1.104103 14.2168,1.8125 13.61057,1.969852 28.46713,0.340935 33.00195,-3.619141 0.79925,-0.697474 3.94528,-4.758618 6.99024,-9.023437 6.34695,-8.889827 13.59069,-15.982496 22.375,-21.910156 7.69325,-5.191295 10.23699,-6.246514 19.61914,-8.134766 4.42948,-0.891442 8.12285,-1.369499 11.88476,-1.419922 z M 40,0 C 17.840001,0 0,17.839987 0,40 v 432 c 0,22.16001 17.840001,40 40,40 h 432 c 22.16001,0 40,-17.83999 40,-40 V 40 C 512,17.839987 494.16001,0 472,0 Z" />
    <flowRoot
       xml:space="preserve"
       id="flowRoot2172"
       style="fill:black;stroke:none;stroke-opacity:1;stroke-width:1px;stroke-linejoin:miter;stroke-linecap:butt;fill-opacity:1;font-family:sans-serif;font-style:normal;font-weight:normal;font-size:40px;line-height:25px;letter-spacing:0px;word-spacing:0px"><flowRegion
         id="flowRegion2174"><rect
           id="rect2176"
           width="40"
           height="60"
           x="320"
           y="292" /></flowRegion><flowPara
         id="flowPara2178" /></flowRoot>    <flowRoot
       xml:space="preserve"
       id="flowRoot2180"
       style="fill:black;stroke:none;stroke-opacity:1;stroke-width:1px;stroke-linejoin:miter;stroke-linecap:butt;fill-opacity:1;font-family:sans-serif;font-style:normal;font-weight:normal;font-size:40px;line-height:25px;letter-spacing:0px;word-spacing:0px"><flowRegion
         id="flowRegion2182"><rect
           id="rect2184"
           width="360"
           height="360"
           x="100"
           y="192" /></flowRegion><flowPara
         id="flowPara2186" /></flowRoot>    <path
       inkscape:connector-curvature="0"
       style="opacity:0.7;fill:#102638;fill-opacity:1;fill-rule:nonzero;stroke:none;stroke-width:2.0999999;stroke-linecap:square;stroke-linejoin:miter;stroke-miterlimit:4;stroke-dasharray:none;stroke-dashoffset:0;stroke-opacity:1;paint-order:markers stroke fill"
       d="m 20.031335,223.7404 c -1.958857,0.0388 -4.054217,1.1513 -4.696354,2.60294 -0.594357,1.34363 -0.557662,2.92212 0.207223,8.90282 4.091776,31.99445 7.037932,54.36567 7.159769,54.36567 0.0235,0 0.690397,-0.2732 1.48208,-0.6072 0.791683,-0.33403 1.477597,-0.64698 1.523939,-0.69556 0.04634,-0.0485 -0.008,-0.66619 -0.120406,-1.37253 -1.66152,-10.43404 -6.269294,-41.90566 -6.486943,-44.30634 -0.07471,-0.82402 -0.185837,-1.73863 -0.247014,-2.03295 -0.07122,-0.34264 -0.03787,-0.45849 0.0925,-0.32142 0.397872,0.41831 1.965211,9.95665 5.61051,34.13951 1.09133,7.23985 2.045674,13.23413 2.1208,13.32064 0.07513,0.0865 0.903587,-0.0718 1.841233,-0.35192 0.937649,-0.28005 1.969667,-0.56927 2.2934,-0.64285 0.323734,-0.0736 0.588595,-0.26864 0.588595,-0.43357 0,-0.16483 -1.1118,-5.67752 -2.471169,-12.2499 -3.767674,-18.21624 -7.515501,-37.05716 -7.656379,-38.49067 l -0.126091,-1.28416 0.321428,0.96325 c 0.559846,1.67609 3.672913,16.20416 8.552967,39.91797 1.25974,6.12149 2.308665,11.15301 2.331122,11.18072 0.02249,0.0276 0.852803,-0.0929 1.845366,-0.26768 0.992566,-0.17467 2.118032,-0.31763 2.500622,-0.31782 0.382595,-1.5e-4 0.695566,-0.10302 0.695566,-0.22892 0,-0.12588 -2.162236,-8.43335 -4.804873,-18.46089 -6.592045,-25.01364 -7.184669,-27.39721 -6.884336,-27.69754 0.350569,-0.35057 1.388141,3.39934 10.214363,36.9161 l 2.438096,9.2568 h 2.400887 c 1.827713,0 2.379446,-0.0637 2.308902,-0.26717 -0.05096,-0.14713 -3.997486,-12.98154 -8.76949,-28.52074 -4.772009,-15.5392 -8.822693,-28.64644 -9.001518,-29.12742 -0.888476,-2.38965 -2.169354,-3.49782 -4.437973,-3.83801 -0.269619,-0.0404 -0.546986,-0.0567 -0.826823,-0.0512 z"
       id="path1836" />
  </g>
</svg>
